<svg width="1024" height="768" xmlns="http://www.w3.org/2000/svg">
  <g fill="none" fill-rule="evenodd">
    <path d="M795.0031 112.6652c.362 3.127 4.244.739 4.607 2.434.229 1.065-3.767 3.708-4.629 4.436 2.784 1.678 6.338-2.188 8.425-3.808 1.075 1.167 1.439 1.78.451 3.115-1.742 2.357-1.663-.766-3.735.874.863 1.45 1.621.619 2.717.229-.477 2.79.592 1.024 1.429 2.791.68 1.437.597 2.499.8 4.104-.984 2.26-1.967 4.521-2.951 6.781-1.183 2.719-.831 3.593-3.725 2.684.326-.564 2.491-3.322 2.315-4-.2-.775-3.161-1.847-3.943-2.498-1.376-1.145-1.361-2.127-2.239-3.357.349-1.144.078-1.679-.815-1.602l-.986 2.651c.082 1.881 1.671 1.705 2.608 3.502 1.436 2.75.632 1.127-.541 3.34-1.152 2.174-1.281 4.949-3.175 6.042 1.018.447 2.035.894 3.053 1.34-2.376 2.608 2.566 1.338 3.383 1.085-.836 1.775-1.672 3.55-2.507 5.325-2.505-1.402-3.741-4.06-5.409-6.255l-3.81 7.082c1.264-.117 2.528-.233 3.79-.35-.176.333-1.794 2.617-1.656 3.125.565 2.071 4.865.903 4.39 3.612-.062.347-3.916 4.234-4.577 4.609 1.937.87 2.813.509 2.119 2.794l-2.698-1.631c-.766 1.375-1.653 2.718-2.141 4.224.093.985-.082 1.918-.528 2.8-.53.789-1.127 1.525-1.791 2.207-.526 1.385-.695 8.945-.061 10.178 1.414-1.827 4.575 1.398-.76 1.398-2.336 0-2.179-.486-3.072 1.566-.702 1.615-1.082 3.024.909 3.179-1.497 2.949-1.177 5.221-1.312 8.364-.11 2.546-.824 5.077-1.353 7.575.474-.681.948-1.361 1.422-2.042 1.277 2.724.304 5.018-.303 7.933-1.326-1.751-1.488 1.373-2.622 1.05-2.313-.66-.581-1.146-1.521-2.663-.815-1.314-.73-1.691-2.236-2.494-1.998-1.065-5.5-1.105-7.76-1.481-3.8-.634-7.605-.793-11.449-.96-14.39-.624-28.73-.784-43.118.007-13.237.728-26.795 2.584-39.775 5.098-13.819 2.676-27.335 5.144-40.719 9.671-2.586.875-5.175 2.7-7.76 3.341-2.453.609-4.911.601-7.468 1.489-6.123 2.126-12.458 3.738-18.628 5.767-6.649 2.187-13.845 4.011-20.173 7.038-2.748 1.315-5.243 3.098-7.991 4.43-2.588 1.255-6.94 2.4-8.307 5.298-.533 1.13-.442 1.949-.111 3.12.664 2.35 1.188 2.096 2.992 1.937 2.51-.222 5.758-2.175 8.195-2.943 6.672-2.102 13.424-3.785 20.209-5.469 12.185-3.025 24.418-8.381 36.442-10.476 7.131-1.242 13.887-4.62 21.057-5.896 1.573-.279 6.127-2.524 7.418-1.748.342.205 1.18 2.669 1.475 3.258 1.059 2.116 2.273 4.159 3.695 6.054 4.286 5.714 10.035 10.316 15.166 15.24 5.861 5.625 10.954 11.83 16.363 17.868.47-.545.939-1.09 1.408-1.634-.495 3.813 2.361 6.563 4.696 9.152 2.771 3.076 5 5.967 7.185 9.474 1.793 2.876 4.087 5.394 6.113 8.014 1.992 2.578 3.318 5.689 5.151 8.467 4.208 6.381 8.349 12.885 12.593 19.18 1.998 2.963 3.576 6.297 5.157 9.67 1.255 2.677 5.031 8.151 5.031 10.748-.271 1.272 2.487 8.924-.461 5.318-.47.728-.941 1.456-1.413 2.184.807-.338 1.612-.676 2.419-1.014-2.448 2.217 2.124 2.502 2.225 3.741-.408.393-.815.786-1.222 1.179-.696 1.434-1.602 1.62-2.715.558-1.227.075-1.472-.611-2.84-.154 1.306 2.039 2.989.75 3.651 3.568.582353 2.482765-1.262935 3.015503-3.211626 4.483856l-.121811.092144-.042551.146659c-.425058 1.269918-1.629726.729091-2.972012.452341-3.21-.661-6.757-1.928-9.883-2.903-6.757-2.107-13.566-3.883-20.552-5.324-15.94-3.289-31.752-3.134-47.837-4.174.423-1.762.426-1.607-.076-2.699.644 1.4-3.241-.428-.313 2.665-7.474 1.222-15.547.303-23.127.71.353-.786 1.164-1.69.406-2.259-3.589 5.189-15.581 2.964-21.509 3.707-3.48.437-6.919 1.274-10.388 1.825l-1.460315.22891c-1.218134.193498-2.435685.405947-3.625685.72809-1.533.413-4.087 2.11-5.54 1.716 2.127-4.288-.326-.576-.66-.527-1.01.149-2.749.489-4.2.489 1.654-6.641 4.491-12.76 5.634-19.6.713-4.264 2.671-11.132-1.545-14.154-2.31-1.656-6.096-2.015-8.771-2.578-2.932-.617-8.055-.592-10.606-2.249-1.992-1.295-2.413-2.485-5.022-3.475-3.01-1.142-4.398-2.276-7.439-1.353 1.237-1.549 2.97-2.679.542-4.262-.995-.647-2.945.224-3.294-1.192-1.802 1.273-1.375 2.301-1.857 4.046.044.738.238 1.442.584 2.11-.954.384-1.907.768-2.861 1.152.606-1.629-1.173-.658-1.528-1.459-.529-1.197-.215-3.024-.215-4.323-1.966.621-4.022 1.389-4.882 3.435-2.407-1.435-1.451-1.533-.217-3.686-2.021-.478-2.449.562-2.756 2.236-1.066-.33-2.134-.659-3.2-.988 2.404-.017 2.981-1.895 3.038-3.935-.935.304-1.87.609-2.806.913l-.576 2.961c-1.473 1.248-5.305-1.006-6.548-1.651-4.334-2.247-5.92-2.897-5.309-8.003.511-4.28 1.642-8.581 1.893-12.883.279-4.779-.279-9.89-.698-14.654-.812-9.219-2.119-18.304-2.577-27.561-.247-5.012-.523-10.025-.72-15.04-.156-3.986-1.532-8.372 3.441-8.726-.608-1.93 1.213-4.162 3.092-5.219.657-1.497 1.375-1.631 2.156-.4.678.213 1.308.113 1.891-.302 2.738-.621 6.022-4.506 8.48-5.907 2.41-1.373 7.665-3.369 9.386-5.681 1.664-2.237-.853-1.985-.344-4.035.694-2.802 3.223 1.222 3.611 1.782.845-.849 4.073-2.441 4.035-3.675-.791-.141-1.581-.282-2.372-.423.864-.499 2.781-1.989 3.786-2.186 1.708-.335 1.067-.768 2.436 1.115.476-.738 1.634-3.163 2.359-3.654.346-.235 2.402-.391 2.833-.543 2.238-.791 2.012-2.532 3.657-3.36.798-.401 1.78.215 2.45-.077 1.07-.468 1.073-2.065 2.044-2.644.84-.502 2.97-.085 3.973-.45 1.662-.607 1.589-1.172 2.829-2.28 1.739-1.553 3.34-1.328 5.277-2.505 2.008-1.22 1.7-3.967 3.522-4.491 2.433-.699 3.056 1.605 4.379-.671.298-.511-1.052-1.275-.205-2.095 1.044-1.01 1.476.195 1.955.98l1.652-3.117c2.648 1.45 1.536-.42 3.557-1.416.897-.442 1.636.431 2.619-.103.723-.392.848-1.246 1.367-1.775.998-1.017 1.55-2.413 3.096-2.897-.559.174 4.021.042 3.612-.154-.445-.654-.891-1.308-1.337-1.962 2.397 0 4.49.238 6.809-.482.821-.254 2.104-.646 2.787-1.168 1.877-1.435 1.454-1.085 1.454-3.721 2.589 1.648 5.885 1.072 8.44-.839 1.334-.998 2.189-2.192 3.652-3.094.628-.325 1.267-.629 1.915-.911.812-.84 1.625-.848 2.44-.023 1.152-.309 1.139-.522 2.032-1.081.256-.506.528-1.003.82-1.49.958-.1 1.902-.273 2.834-.519 3.617-.973 5.801-3.387 9.158-1.248.429-.875.859-1.751 1.287-2.627 1.429 2.232 2.406.1 4.302-.804.795-.379 1.827-.473 2.545-.819l1.214.287c.343-1.06.685-2.12 1.027-3.18.691.269 3.43 1.74 4.253 1.662 1.18-.111 2.59-2.108 3.733-2.485 1.744-.575 1.119.185 2.832.197 1.317.009 1.938.196 3.076-.91-3.846-.999 1.006-1.47 2.627-1.808 2.525-.526 3.826.036 5.58-1.959h-1.821c1.797-1.635 1.192-1.058 3.084-.898.596.049 3.188 1.472 3.193-.426 2.445 1.441 2.472 1.444 4.993.794 1.116-.288 2.066-1.225 3.293-1.247 1.197-.021 2.055.52 3.123.404.639-.068 2.876-.907 3.632-1.182 1.199-.437 1.989-1.37 3.136-1.731 1.262-.399 2.868.075 4.194-.216 3.943-.868 6.257-3.228 10.526-1.95.456-3.821 5.218-2.971 7.781-2.577 1.784.275 2.693.997 4.54.123 1.504-.711 2.361-1.839 4.035-2.407 1.284-.436 3.014-.753 4.355-1.031.829-.262 1.676-.346 2.541-.251.869.121917 1.597674.500118 2.185251 1.133064l.108312.124936c.133585-.315395 2.153437-1.811889 1.921437-1.627 1.508-1.207 2.215-.746 3.142-3.096l-3.232-.682c1.664-.112 2.914-.304 4.394.343 1.023.447 2.742 2.816 3.767 2.818 1.853.002 2.501-2.609 2.317-3.968 1.555 3.621 2.882 4.224 6.374 2.373.41-.218.821-.435 1.231-.653.831-.871 1.657-.855 2.479.049l1.464.797c.587-.977 1.173-1.953 1.761-2.93 1.246 1.716 2.43 1.8 4.462 1.399 1.401-.277 4.277-2.816 5.31-2.815.599 0 1.364 1.46 2.363 1.745 1.653.474 4.222-.718 4.811-2.3.313.66.626 1.321.938 1.982.781-.73 1.565-1.458 2.341-2.193zm-59.333437 245.387l-.002563.056.055563-.044.001437-.002-.054437-.01zm-2.028563-3.445v3.075l1.041125.19.987438.18.010079-.168699c.043988-1.478841-.71388-2.574396-2.038642-3.276301zm-92.02-12.234c-.325.996-.649 1.993-.973 2.989 1.093.089 2.187.178 3.281.268-.77-1.086-1.539-2.171-2.308-3.257zm-128.4274-78.7939c2.391.698 2.358.613 2.838 2.825 2.731 12.59-5.719 27.03.485 38.998-18.136-.147-36.309.215-54.339 2.34 0-6.856.225-13.697-.293-20.542-.235-3.107-.586-6.203-.903-9.302-.401-3.933-.274-3.703 2.945-4.38 1.691-.356 2.296-1.428 3.912-2.081 1.213-.491 1.757.113 2.953.281 2.139.302 2.165-.057 4.125-.475 4.207-.897 7.78-.577 11.104-3.718 1.723-.149 1.165 1.447 2.366 1.291.873-.114 1.429-1.744 2.32-2.133 2.771-1.213 7.384-.917 10.416-1.296 3.097-.386 5.838-1.783 8.803-2.197 1.221-.17 2.111.051 3.268.389zm34.9844 36.3359c-.585278 2.176806-3.152674-.656979-3.192851 1.050317l.002414.151683.005261-.038728c.135565-.287842 2.732238 3.14904 2.579176 3.034728 1.395 1.051 2.208.952 3.789-.254-2.83-.107-2.518-1.853-3.183-3.944zm7.886 3.076c1.033.568 1.349-.885 1.884-1.772-1.154-.575-1.324.763-1.884 1.772zm-3.197-9.471c.402 1.414.373 2.498.373 3.958 2.389-.338 3.14-.512 3.184-3.053l-1.277.803c-.67-1.327-.818-1.43-2.28-1.708zm-18.488 2.367c.541-.348 1.082-.697 1.623-1.046-.798-1.148-2.217.217-1.623 1.046zm6.042-21.126c.69-.362 1.382-.724 2.072-1.086-1.792-2.285-1.923-1.518-2.072 1.086zm-2.497-18.124h-2.716c.532 1.746 2.716 2.122 2.716 0zm266.1025-101.5821c.62.362 1.241.724 1.861 1.085-1.612 1.469-3.594 2.95-2.024 4.672 1.247 1.367 7.069 2.019 8.813 2.517-.605.696-1.852 2.598-2.677 3.077-.654.379-1.251-1.122-2.569.373 2.186 1.134 1.6.275 1.032 2.68-.335 1.419-1.534 2.943-2.209 4.216-1.645 3.097-3.328 6.174-5.053 9.227-3.539 6.261-7.265 12.418-11.18 18.452-.66-3.408 1.228-7.227 2.207-10.515 1.232-4.138 2.466-8.274 3.706-12.409 2.393-7.968 4.541-15.853 8.093-23.375zm-94.9865 10.3971c-1.769.451-2.928.745-4.757 1.211 2.657.846 2.657.846 4.757-1.211zm78.325-15.359c-2.256 1.056-2.497 1.823-.672 3.115.217-1.005.376-1.742.672-3.115zm-.274-24.989c-.306 1.341-2.203.051-2.623 1.031-.962 2.242 2.096 1.938 3.198 1.803-.191-.945-.384-1.889-.575-2.834zm12.784-1.702c-.604 2.867-.604 2.867 2.192 3.298-.734-1.104-1.349-2.03-2.192-3.298zm-50.715437-1.979l-.004963.030432c.001797.011637.009952.019253.025175.022357l.028225.001211-.048437-.054z" fill="#ffffff"/>
    <g fill="#61dafb">
      <path d="M395.6017 421.7152c-.424 2.183-1.484 3.211-.373 5.216.943 1.703 3.647 2.818 5.462 2.387l-5.089-7.603zm-49.174-77.646l-8.953 3.069c2.447 2.401 4.779 4.925 7.477 7.057l1.476-10.126zm147.679 7.86c-4.27-2.152-9.053-2.395-13.734-2.671.711 3.843 1.424 7.687 2.137 11.53 3.865-2.953 7.732-5.906 11.597-8.859zm-102.533 297.495c-.852-1.509-6.664-13.168-7.872-12.569-.641.317-.691 6.808-.785 7.731-.333 3.284-.667 6.567-1 9.851 3.438-1.214 7.11-2.221 9.657-5.013zm-40.608-94.254c.879 2.576 1.759 5.153 2.638 7.73.418 1.225.663 3.032 1.403 4.113.961 1.402.236 2.227 1.519.692 1.378-1.649 1.79-6.047 2.388-8.067.909-3.069 1.817-6.136 2.725-9.204-4.281-.036-6.876 3.489-10.673 4.736zm-89.962-151.74c-5.264 3.598-10.593 7.167-15.173 11.639 4.029-.251 9.639 2.521 13.434 1.219 1.752.374 2.331-.291 1.739-1.997v-10.861zm78.052 25.452v21.007c4.915-4.188 10.088-8.078 14.817-12.482-4.939-2.842-9.877-5.683-14.817-8.525zm175.701 54.431c-1.551 9.352-1.637 18.976-2.062 28.44-.075 1.68-.722 4.209.397 5.68 1.123 1.475 4.322 2.292 5.948 3.08 4.575 2.218 9.119 4.499 13.681 6.744l-17.964-43.944zm116.151-57.513c11.286-5.548 22.573-11.096 33.86-16.645-11.066-4.685-22.133-9.369-33.198-14.054-.221 10.233-.442 20.467-.662 30.699zm-116.175 26.121c2.063.148 2.389-7.709 2.73-9.787.65-3.944 1.316-7.885 1.999-11.824 1.367-7.874 2.803-15.736 4.315-23.583 3.024-15.692 6.359-31.325 10.055-46.872-3.972-.716-7.621-1.231-11.5-2.387-3.133-.934-6.864-.426-9.661-2.368-.363 7.285 1.456 15.03 2.129 22.315.78 8.429 1.199 16.814 1.13 25.281-.136 16.409-.759 32.822-1.197 49.225zm-259.782 222.319c1.956-.521-.707-27.334-.826-31.201-.34-11.195-.406-22.398-.206-33.596-10.538 6.608-21.321 12.694-32.453 18.183 2.861 3.711 5.542 7.713 8.708 11.167 3.262 3.557 7.004 6.472 10.027 10.303 6.086 7.715 10.255 16.473 14.75 25.144zm253.587-158.618c.49-8.065.944-16.113 1.758-24.154.347-3.422 3.654-21.605-1.641-21.178-3.012.243-8.295 4.651-11.057 6.196-3.648 2.04-7.301 4.074-10.967 6.083-7.234 3.964-14.516 7.84-21.776 11.757 14.561 7.099 29.122 14.198 43.683 21.296zm-31.438-167.699c-6.031-.45-11.861-.898-17.81-2.021-3.208-.606-6.416-.522-9.641-.931-2.31-.293-6.825-2.19-8.977-1.569-2.704.78-3.686 14.331-4.058 17.732-.599 5.478-1.003 12.124 1.444 17.27 4.716 9.92 17.423 2.177 23.605-1.984 5.299-3.568 11.302-7.181 16.002-11.512 4.163-3.837.426-12.027-.565-16.985zm31.277 107.875c4.544-1.838 4.472-4.146 4.67-8.9.24-5.776.38-11.559.545-17.338.294-10.298.572-20.601.48-30.905-.089-10.065-.582-20.114-1.734-30.117-.407-3.537-.002-9.578-1.866-12.595-1.701-2.752-6.981-2.781-9.862-2.611-3.248.191-5.879 3.276-8.276 5.226-2.655 2.161-8.11 5.203-8.545 8.425-.488 3.598 1.489 8.732 2.255 12.222 2.801 12.737 6.209 25.349 9.799 37.883 3.724 13.004 7.498 26.139 12.534 38.71zm-115.448-30.488c.293-2.862 1.358-5.252-.082-7.978-1.237-2.344-3.251-4.699-4.764-6.918-4.33-6.356-9.186-12.444-13.903-18.516-4.32-5.561-8.746-11.063-13.274-16.456-2.522-3.003-5.122-5.941-7.706-8.891-1.893-2.159-3.687-5.193-6.364-6.323-1.973 12.397-3.603 24.848-4.875 37.337-.614 6.037-1.144 12.083-1.589 18.135-.126 1.708-1.451 7.477-.604 9.068.891 1.671 6.336 3.907 8.003 4.931 4.66 2.864 8.281 7.179 12.713 2.471 3.051-3.242 5.508-7.812 8.918-10.641 1.777-1.474 3.45-1.405 5.443-2.28 2.317-1.016 2.39-1.995 5.159-.612 4.665 2.329 7.499 5.771 12.925 6.673zm-233.549 63.785c0 8.583-.587 15.639 5.231 22.587 5.084 6.072 10.367 7.477 17.518 9.873 4.211 1.41 4.505.11 7.917-2.272 3.243-2.262 6.774-4.077 9.972-6.411 6.893-5.03 13.781-10.218 20.48-15.509 2.252-1.779 1.92-1.172 1.578-3.307-.313-1.945-1.709-4.421-2.472-6.271-1.38-3.347-3.006-6.586-4.633-9.819-1.847-3.668-3.456-7.652-5.75-11.072-.952-1.419-2.082-2.703-3.193-3.997-2.339-2.725-2.256-2.624-5.053-.397-5.905 4.703-11.399 9.794-18.045 13.471-7.863 4.352-15.707 8.733-23.55 13.124zm178.049-66.485c.853-12.322 1.815-24.576 3.292-36.842.759-6.298 1.642-12.579 2.501-18.864.35-2.559 1.7-6.854.948-9.34-.739-2.447-4.001-4.776-5.791-6.546-.481-.476-1.96-2.473-2.596-2.563-.681-.095-3.244 1.782-3.983 2.205-2.614 1.499-5.181 3.075-7.709 4.715-4.764 3.091-9.38 6.408-13.897 9.849-9.472 7.215-18.505 14.979-27.776 22.447 8.494 7.444 18.949 13.225 28.446 19.254 5.615 3.565 11.259 7.091 16.976 10.49 2.899 1.722 6.261 4.355 9.589 5.195zm-116.114 220.342c-6.859 4.535-13.409 9.322-21.166 12.232-7.722 2.898-15.354 4.013-23.335 5.735-4.025.869-7.808 1.819-11.916 2.427-2.302.34-5.865.209-7.964 1.181-1.869-.398-2.535.239-1.996 1.912l.06 1.56c.529 7.233 5.178 15.937 9.233 21.817 2.367 3.434 5.383 6.629 8.38 9.515 3.384 3.259 5.335 5.557 10.052 4.192 7.951-2.302 14.968-6.935 23.027-8.978 6.375-1.616 11.67-5.003 17.887-6.756 7.667-2.162 15.254-4.626 23.027-6.432-3.472-6.702-6.577-13.68-11.022-19.819-4.559-6.3-9.586-12.354-14.267-18.586zm42.067-225.518c14.344 2.855 29.891 5.498 42.729 12.903 5.01 2.89 11.361 7.357 12.828 13.334 1.754 7.144-5.142 11.569-10.902 13.799-6.916 2.677-14.444 3.703-21.772 4.547-3.879.447-7.776.691-11.673.912-3.154.18-8.503-.513-11.386.737-1.806-.36-2.432.372-1.878 2.197-.034.655-.067 1.311-.1 1.966l-.299 5.89c-.199 3.922-.398 7.845-.598 11.767-.433 8.544-.867 17.089-1.3 25.633 7.513-4.655 13.568-11.32 20.911-16.286 3.491-2.361 6.957-4.727 10.434-7.08 1.458-.986 2.349-2.369 3.784-3.288 1.903-1.219 3.59-1.952 5.375-3.549 7.29-6.52 15.397-12.156 23.129-18.141 3.512-2.72 7.357-5.22 10.699-8.137 3.5-3.056 3.016-5.572 2.93-9.965-.09-4.651 1.617-10.426.825-14.911.665-1.522.154-2.469-1.531-2.841-1.126-.72-2.251-1.44-3.377-2.16-2.245-1.436-4.49-2.872-6.735-4.307-8.931-5.711-17.861-11.423-26.792-17.134-4.461-2.853-8.922-5.706-13.384-8.559-1.246-.796-5.31-4.396-6.708-4.29-1.426.108-3.9 2.892-4.969 3.778-1.64 1.358-3.232 2.787-5.004 3.976-.883.612-1.805 1.158-2.765 1.639-1.535.148-2.068.991-1.601 2.528-1.348 4.324-.607 10.5-.87 15.042zm198.912 203.846c-3.248-15.185-7.437-33.166-20.106-43.495-12.849-10.476-31.634-6.428-41.685 5.874-5.034 6.162-8.155 13.447-10.473 20.996-2.38 7.748-5.887 17.843-5.245 26.037.281 3.592 3.359 7.453 5.118 10.587 1.815 3.237 3.02 7.878 7.298 6.757 6.633-1.739 13.379-5.731 19.586-8.588 6.278-2.891 12.888-5.269 19.398-8.061 4.322-1.853 8.809-3.263 13.12-5.143 4.088-1.781 9.482-2.211 12.989-4.964zm191.931-90.443c9.06 3.243 13.769-1.948 20.144-7.792 6.039-5.536 12.582-10.86 18.143-16.877 5.736-6.204 10.27-13.536 14.68-20.702 4.458-7.242 10.484-15.064 13.229-23.13 1.396-4.103 1.992-8.649 2.872-12.89.212-1.021 1.633-4.82 1.182-5.679-.622-1.181-4.578-1.306-5.664-1.478-8.645-1.367-17.806-1.435-26.477-.213-16.777 2.364-30.808 11.773-36.111 28.225-6.216 19.286-3.229 40.722-1.998 60.536zm-58.743-167.282c-.14 3.339 7.864 4.267 9.939 5.046 4.794 1.798 9.561 3.697 14.216 5.825 9.587 4.382 19.81 7.237 28.99 12.535 19.789 11.421 41.272 19.472 61.264 30.396 3.115 1.703 9.202 5.804 12.76 5.457 1.891-.184.482 1.338 1.709-1.668.441-1.082.588-2.489.835-3.648.741-3.473 1.314-6.978 2.146-10.432 1.369-5.685 2.767-10.959 3.344-16.802.245-2.476.513-4.949.542-7.439.03-2.524.611-8.848-.528-11.033-.756-1.449-.907-.952-2.795-1.361-1.082-.234-2.217-.721-3.26-1.046-2.449-.762-4.9-1.494-7.468-1.718-2.537-.222-4.156-.994-6.535-1.442-2.496-.47-5.06.1-7.603-.556-2.745-.709-4.055-1.356-6.923-1.085-2.781.262-3.581-.354-6.304-1.112-2.273-.632-4.981-.19-7.35-.382-2.867-.234-5.725-.592-8.594-.819-12.9-1.021-25.953.493-38.883.373-7.031-.065-13.911.973-20.932.652-6.136-.28-12.479-.214-18.57.259zm33.559 67.989c-6.275 2.39-12.094 6.272-17.912 9.615-6.709 3.855-13.13 7.951-19.339 12.574-10.439 7.774-22.621 17.095-25.369 30.66-2.819 13.922 9.271 25.329 20.606 31.025 12.927 6.495 27.966 9.854 42.126 12.335-1.514-32.049-1.158-64.151-.112-96.209zm-187.732 75.452c-3.807 1.052-7.03 3.305-10.562 4.972-3.163 1.493-6.224 2.619-9.179 4.541-4.815 3.133-10.397 5.815-15.431 8.238-12.456 5.993-24.549 13.436-36.881 20.078-3.268 1.761-4.339 2.873-5.446 6.497-1.202 3.936-2.335 7.899-3.493 11.849-1.08 3.684-2.804 7.623-2.35 11.512.396 3.383 2.146 6.574 3.465 9.66 3.322 7.766 6.923 15.408 10.644 22.989 3.339 6.806 6.386 14.027 10.672 20.283 3.331-17.374 6.32-36.841 19.233-50.08 12.903-13.229 33.488-13.416 45.922.24 5.907 6.487 9.502 14.657 12.328 22.866 1.484 4.313 2.481 8.708 3.436 13.162 1.02 4.758.769 7.283 6.019 5.841 4.169-1.145 8.589-2.059 12.676-3.365 2.12-.677 4.188-1.438 4.284-3.113.122-2.115-2.726-6.446-3.567-8.436-4.343-10.271-8.687-20.543-13.031-30.814-4.717-11.153-9.435-22.306-14.154-33.458-2.354-5.565-4.709-11.129-7.064-16.693-2.148-5.072-3.937-12.604-7.521-16.769zm188.085-86.733c.07-5.071.154-10.142.22-15.214.04-3.022 1.387-8.866-1.245-11.025-1.632-1.338-6.473-2.364-8.537-3.28-4.073-1.806-8.483-2.612-12.58-4.406-16.046-7.029-32.745-12.883-49.266-18.548-3.562-1.222-7.203-2.222-10.789-3.425-1.936-.649-9.107-4.463-10.898-3.465-1.569.873-2.752 11.273-3.254 13.432-1.189 5.112-2.326 10.237-3.418 15.371-4.241 19.932-7.798 40.004-11.106 60.11 8.788-3.337 17.211-9.119 25.514-13.589 8.625-4.643 17.22-9.275 25.904-13.811 2.451-1.281 11.074-7.167 13.092-4.857 3.237 3.707-4.476 8.055-6.501 9.643-7.832 6.143-16.106 11.498-24.482 16.856-8.679 5.554-17.711 10.46-26.435 15.912-3.149 1.968-8.176 4.364-9.414 7.688-1.592 4.276-.443 9.473 1.007 13.558 3.56 10.039 7.459 19.954 11.582 29.774 1.875 4.465 3.798 8.91 5.757 13.338 2.333 5.274 5.394 6.389 10.477 8.816 21.654 10.34 44.146 20.153 64.945 32.118-3.481 4.012-11.965-2.576-15.4-4.244-6.362-3.09-12.73-6.17-19.087-9.269-11.843-5.773-23.626-11.661-35.536-17.295 7.633 17.361 16.641 34.088 26.629 50.203-2.522.854-1.907.899-3.49-.618-1.333-1.277-2.228-3.779-3.131-5.383-1.867-3.313-3.709-6.639-5.59-9.944-3.902-6.859-7.946-13.614-11.509-20.66-2.68-5.298-4.756-14.56-10.264-17.231-6.863-3.33-13.817-6.571-20.68-9.948 0 26.395 1.897 52.204 4.681 78.436.141 1.323 1.409 5.227-1.148 4.845-1.153-.173-1.542-7.411-1.744-8.922-.93-6.929-1.719-13.875-2.364-20.835-1.285-13.889-1.984-27.834-2.074-41.782l-4.941 40.683-2.341 19.277-1.23 10.125c-.188 1.551-.069 3.578-.614 5.057-.857 2.327-.569 2.149-3.256 3.21 2.569-17.659 4.942-35.348 7.041-53.069 1.025-8.647 1.985-17.301 2.87-25.963.238-2.329.471-4.66.699-6.99.115-1.188 1.14-5.008.571-5.995-.563-.978-4.296-1.998-5.371-2.497-2.353-1.092-4.706-2.183-7.057-3.281-7.632-3.567-15.258-7.163-22.806-10.904-3.302-1.637-6.765-4.166-10.356-5.039-3.575-.869-6.175 1.619-9.232 3.201-2.379 1.231-7.984 2.87-9.573 4.961-1.479 1.946 3.114 9.734 4.321 12.605 3.403 8.1 6.807 16.201 10.211 24.301 6.901 16.424 13.803 32.848 20.705 49.273 1.687 4.014 3.374 8.029 5.061 12.044 1.081 2.573 2.886 9.905 5.509 10.192 1.161.127 3.067-1.136 4.189-1.499 1.674-.541 3.22-.533 4.9-.818 3.078-.522 6.274-2.11 9.297-3.224 7.769-2.864 15.823-4.713 23.655-7.388 7.868-2.687 15.608-5.706 23.445-8.394 7.118-2.44 14.3-5.221 21.138-8.399 7.221-3.357 14.627-6.317 21.663-10.039 12.816-6.779 25.493-13.11 36.817-21.424 2.662-1.955 5.498-3.918 8.132-6.011 2.309-1.837 6.715-4.105 8.287-6.52.599-.921 1.114-2.727.414-3.82-.751-1.174-4.077-1.067-5.631-1.276-4.901-.658-9.801-1.317-14.701-1.975.376 3.223.756 6.443 1.029 9.678.191 2.283 1.541 8.317-.279 10.106-2.502-2.378-1.698-9.489-1.922-12.657-.12-1.693.311-5.007-.447-6.509-.831-1.646-3.127-1.624-5.208-2.074-8.824-1.909-17.568-3.511-26.107-6.536-14.425-5.109-31.668-13.736-34.89-30.376-3.359-17.347 11.401-32.377 23.828-42.052 7.441-5.792 15.357-10.807 23.544-15.463 3.827-2.175 7.651-4.351 11.502-6.48 1.401-.774 6-2.369 6.739-3.723.756-1.385.369-5.089.529-6.667zm-308.619 266.405c-.7.342-1.401.684-2.1 1.026 7.785-22.185 15.498-44.27 22.007-66.872 3.142-10.909 6.325-21.807 9.574-32.685 1.403-4.692 4.848-11.154 3.891-16.015-1.036-5.261-3.52-10.857-5.442-15.86-12.303 7.734-24.864 15.071-37.372 22.454-11.213 6.621-22.616 12.509-33.908 19.06-5.786 3.356-11.755 5.623-17.794 8.365-4.907 2.229-3.002 9.042-2.931 13.593.248 16.068.236 32.193 1.211 48.238.355 5.845-.103 12.556 3.618 17.421 4.759 6.22 9.173 12.561 13.513 19.109 1.626 2.453 8.457 15.734 11.004 15.443 1.663-.189 3.194-5.567 4.026-6.842 1.793-2.749 4.414-5.114 6.8-7.327 10.304-9.56 21.738-16.294 33.621-23.281 12.073-7.098 24.428-13.705 36.729-20.436 2.779-1.521 5.772-2.618 8.533-4.172 1.091-.614 3.254-1.589 3.941-2.686 1.027-1.642.679-6.191.893-8.154.438-4.01 1.225-8.176 1.267518-12.216.040482-3.99-2.358518-7.419-4.097518-10.898-7.634-15.278-15.051-30.593-21.693-46.334-5.237 18.278-10.735 36.47-15.872 54.775-2.682 9.558-5.915 18.96-9.063 28.371-1.607 4.807-3.224 9.61-4.829 14.418-1.25 3.744-1.899 9.226-5.527 11.505zm109.641-344.467c-4.047.045-7.715-.55-11.673-1.395-1.452-.309-2.728-.44-4.2-.57-1.669-.147-3.185-1.051-4.648-1.228-1.106-.133-3.037.331-4.093.685-2.448.82-2.37.406-2.472 3.248-.16 4.391-.28 8.783-.521 13.17-.949 17.269-2.783 34.37-5.296 51.472-.509 3.457-1.933 7.991-1.15 11.424.706 3.095 3.38 6.401 5.146 8.997 3.633 5.339 12.189 7.977 18.208 9.491 6.347 1.597 12.937 2.185 18.967 3.609 1.671.395 3.589-.301 5.37.095 1.647.366 2.926 1.27 4.448 1.924 3.729 1.601 7.895 1.896 11.746 3.132 7.636 2.451 15.812 2.304 23.455 4.658 1.954.601 3.642 2.117 5.522 2.636 1.719.474 3.489-.084 5.288.181 3.812.561 7.366 1.864 8.245 5.956 2.331-1.845 2.655-1.36 2.252-4.214-.258-1.83-1.277-4.058-1.835-5.822-1.422-4.498-2.852-8.993-4.273-13.491-2.811-8.901-5.605-17.809-8.196-26.776-2.319-8.021-4.427-16.103-6.269-24.247-.937-4.141-1.72-8.3-2.523-12.463-.234-1.208-.002-3.128-1.216-3.932-1.101-.729-3.671 1.887-4.834 2.73-8.123 5.884-26.754 23.287-36.91 13.021-5.469-5.528-5.149-15.247-4.555-22.389.364-4.39 1.135-8.723 1.997-13.039.215-1.077 1.532-4.537 1.05-5.304-.521-.825-5.943-1.317-7.03-1.559zm285.419 96.055c2.163.242 4.324.485 6.486.728-.198-1.747-.02-4.374-.681-6.001-.915-2.249-3.154-2.5-5.617-3.432-3.896-1.473-7.869-2.754-11.722-4.34-8.362-3.441-16.685-6.931-25.052-10.372-3.667-1.509-7.976-3.978-11.958-2.746-4.294 1.33-8.532 4.038-12.546 6.021-4.545 2.246-9.088 4.497-13.63 6.748-2.13 1.056-4.261 2.111-6.391 3.167-3.347 1.658-3.792 1.826-4.056 5.613-1.345 19.372-1.245 39.496-.659 58.894.3 9.899-.036 19.852.674 29.734.055.76-.002 5.049.474 5.634.67.824 5.387 1.102 6.514 1.309 4.394.803 8.819 1.07 13.259 1.467-1.046-22.532-4.888-49.169 6.683-69.779 11.623-20.706 36.467-25.191 58.222-22.645zm-202.056-221.67c1.303-2.968 3.547-5.474 5.465-8.078 1.037-1.408 2.831-3.091 3.495-4.738.945-2.344.94-1.842-.472-3.895-1.335-1.94-1.308-2.086-3.372-2.433-1.738-.292-3.589.204-5.364-.114-1.795-.322-6.728-1.834-5.597-4.69-.049.125 2.805-1.282 3.027-1.526.717-.781.944-2.446 1.298-3.39 1.14-3.026 1.54-4.985.27-8.207-1.898-4.811-9.4-6.235-14.07-4.616-2.335.808-3.666 2.522-4.715 4.676-.667 1.368-.822 3.345-1.684 4.536-1.3 1.793-1.38 1.594-4.075 1.277-3.431-.403-6.245-1.721-9.496-2.64-3.541-1.002-5.844 1.036-8.938 2.679-5.586 2.968-10.981 3.998-17.238 4.469-6.968.525-13.426-1.155-20.325-1.588 1.79 8.245 6.419 14.939 10.119 22.405.65 1.313 1.701 2.655 1.726 4.174.026 1.431-2.046 3.378-1.813 4.562.499 2.526 6.058 4.548 8.164 5.259 5.957 2.009 12.74 5.942 19.296 4.362 3.595-.866 5.529-6.542 8.912-6.959 4.538-.562 1.143 5.282.3 7.292 6.441.979 14.605.149 20.77-2.035 3.09-1.094 5.708-2.727 8.528-4.346 3.512-2.016 4.242-2.57 5.789-6.436zm-112.715 122.71c-11.483.191-23.134-1.462-34.643.057-2.666.351-5.297.917-7.917 1.519-1.883.433-7.864.799-9.12 2.199-1.144 1.277-1.152 7.156-1.388 8.813-.525 3.69-.385 4.964 1.968 7.817 7.742 9.388 15.805 18.496 23.434 27.988 7.328 9.118 13.343 19.306 20.75 28.295 3.956-11.515 4.193-25.334 5.279-37.408.579-6.438 1.106-12.881 1.601-19.325.471-6.138 2.073-14.103.036-19.955zm-148.629 121.357c1.328 0 3.446.416 4.737 0 1.775.565 2.368-.101 1.781-1.997.028-.663.056-1.327.085-1.991.185-4.277.389-8.553.587-12.83.182-3.91.359-7.821.513-11.732.106-2.67 1.455-9.289.376-11.7-.725-1.621-2.442-1.253-4.531-1.49-1.987-.225-3.98-.433-5.956-.741-2.508-.391-5.288-1.289-7.84-.727-2.564.565-4.428 2.932-6.44 4.438-3.184 2.381-6.437 4.674-9.648 7.018-5.836 4.262-11.613 8.602-17.4 12.929-2.39 1.786-2.849 1.166-1.684 3.734.721 1.586 2.36 3.381 3.358 4.814 1.987 2.854 3.966 7.18 6.515 9.496 3.709 3.37 14 1.23 18.927 1.206 5.618-.028 11.034.059 16.62-.427zm14.542-.279c4.872-.477 9.794-.271 14.636-.926 5.264-.713 10.49-1.768 15.744-2.559 5.238-.787 21.173-3.972 19.6-11.79-1.662-8.264-13.861-13.214-20.611-15.992-10.542-4.339-21.548-6.662-32.637-9.115-1.391 7.408-1.191 15.361-1.445 22.868-.138 4.077-.259 8.159-.257 12.24 0 .982-.337 3.02.064 3.933.942 2.149 2.038 1.341 4.906 1.341zm-16.022 3.55h-31.096c4.602 9.526 8.952 19.23 13.913 28.576 4.941 9.31 11.303 18.082 16.909 27.018 1.42-1.545 3.685-3.221 4.65-5.06 1.069-2.034 1.039-5.027 1.214-7.382.454-6.112.661-12.278.815-18.404.135-5.365.371-10.694.783-16.046.09-1.174 1.385-7.271.644-8.273-.661-.892-6.472-.42-7.832-.429zm128.065-187.038c5.246-.001 10.498-.067 15.743.021 4.76.081 10.962-.748 15.322 1.703 8.883 4.992-8.874 17.813-12.475 21.04 5.822 2.11 14.909-2.078 20.609-3.997 7.048-2.372 14.235-3.965 21.424-5.823 1.796-.464 9.506-1.373 10.48-2.749.966-1.365-1.198-9.6-1.415-11.337-.203-1.633-.032-4.179-.712-5.715.417-1.845-.231-2.492-1.944-1.938-.592-.002-1.182-.005-1.774-.007-4.374.035-8.752.238-13.123.383-15.024.5-29.683 1.167-44.579 3.512-6.925 1.09-13.911 2.431-20.8 3.769-5.799 1.126-4.823 2.071.593 2.085 4.236.011 8.436-.618 12.651-.947zm430.979-110.48c.892-1.025 1.786-2.051 2.678-3.077-2.175-.621-4.35-1.243-6.525-1.864-2.313-.66-3.558-.509-2.529-3.093 1.288-3.237 7.172-3.608 10-3.73 9.737-.421 19.965 2.677 29.215 5.406 4.513 1.332 8.051 3.393 11.87 6.134 1.667 1.197 3.592 2.321 5.051 3.759 1.516 1.494 2.147 3.408 3.629 4.906 2.431 2.456 5.542 3.679 6.734 7.224 1.368 4.069-.265 8.727-2.29 12.275-2.054 3.601-5.105 6.324-7.583 9.596-1.967 2.596-6.074 9.689.344 8.867 3.394-.435 7.796-6.223 10.239-8.529 3.501-3.307 6.945-6.69 10.653-9.77 3.288-2.731 7.076-5.531 11.473-6.011 4.634-.506 6.949 2.46 9.208 6.067 2.13 3.402 2.472 6.723 3.97 10.205.723 1.679 1.643 2.615 2.068 4.445.653 2.815.721 5.886 1.054 8.756.524 4.507 1.017 8.051.144 12.467-.818 4.133-1.041 8.523-1.73 12.728-.78 4.762-1.429 9.546-2.198 14.31-.651 4.036-3.128 9.784-.698 13.537 5.838 9.019 12.842-4.258 14.686-9.218 3.242-8.716 4.892-18.244 7.753-27.139 1.532-4.757 2.869-9.559 3.747-14.484.727-4.073.369-9.035 2.601-12.663 1.735-2.818 4.821-4.958 8.208-4.098 4.238 1.077 5.866 7.203 7.113 10.927 3.291 9.822 2.08 18.668.74 28.685-.62 4.638-1.212 9.283-2.277 13.844-.719 3.077-3.696 9.305.73 10.978 6.275 2.374 12.926-15.628 14.714-19.693 4.682-10.647 6.475-21.206 8.405-32.614.443-2.623.782-5.302 1.445-7.88.577-2.244 2.301-4.512 2.456-6.756.155-2.246-1.332-3.813.192-6.018 1.268-1.835 3.559-1.946 5.629-1.962 4.862-.038 9.513 2.097 14.036 3.646 4.209995 1.441 10.436995 4.603 14.973995 3.585-14.238995-14.457-28.441995-28.75-45.424995-40.009-7.886-5.229-15.778-10.254-24.302-14.518-8.634-4.319-18.528-7.236-27.775-9.849-5.029-1.422-10.03-3.033-14.996-4.664-4.421-1.452-8.871-1.727-13.2-3.374-9.405-3.577-19.914-4.963-29.652-7.499-4.3-1.119-8.647-2.079-12.957-3.116-4.53-1.09-10.894-2.983-15.509-2.799-3.942.157-5.272 4.674-7.168 7.816-2.753 4.561-5.1 9.3-7.265 14.165-4.434 9.968-9.115 20.266-12.287 30.68-1.741 5.718-3.461 11.442-5.172 17.169-1.48 4.958-5.183 12.11-4.199 17.198 7.293-11.239 14.084-22.911 19.978-34.948zm-339.533 101.484c-3.869.176-7.739.351-11.608.527 3.858 12.68 3.32 26.182 3.32 39.325 18.029-2.125 36.203-2.487 54.339-2.34-3.332-6.428-2.04-14.767-1.091-21.65.556-4.029.866-7.91.785-11.975-.076-3.813 1.023-7.019-3.017-8.198-3.205-.935-5.231.623-8.284 1.334-3.657.851-7.64.954-11.363 1.417-7.749.963-15.221 1.528-23.081 1.56zm-103.889 24.694c11.619-3.223 23.966-2.035 35.643-4.485-2.656-2.424-7.66-.988-11.187-.786-4.01.228-8.017.395-12.027.59-3.911.191-14.759-.105-16.17 4.871 1.246-.063 2.494-.127 3.741-.19zm425.14-179.68c-15.204 1.334-31.127 1.127-46.221 3.78-17.287 3.038-35.307 4.944-52.068 10.298-16.441 5.253-33.209 8.93-49.417 15.098-15.756 5.996-30.932 12.375-45.77 20.395-7.262 3.925-14.329 8.086-21.252 12.594-6.759 4.401-14.165 8.009-20.714 12.674-5.83 4.153-10.859 7.962-15.943 13.05-5.434 5.44-10.721 11.027-16.16 16.458-4.54 4.531-1.666 15.609-1.378 21.639.399 8.36 1.088 16.602 2.113 24.907.975 7.914 1.979 16.42.69 24.317-.541 3.32-2.409 9.055-1.517 12.369.713 2.654 5.447 4.6 7.862 5.465 2.954 1.058 5.971.612 9.002 1.958 3.385 1.505 6.239 3.381 9.834 4.172 4.431.975 9.413 1.795 13.967 1.825 4.211.027 8.436 1.391 12.635 2.231 6.83 1.368 13.497 1.794 13.072 10.031-.491 9.504-4.262 17.659-6.508 26.681 3.037 0 5.154.194 7.934-.883 3.246-1.256 6.709-1.59 10.12-2.132 7.536-1.199 14.883-1.583 22.469-2.348 13.896-1.402 28.033-1.234 41.94-1.086 7.041.074 14.679.618 21.623 1.714 7.124 1.125 14.502 1.828 21.406 3.985 5.824 1.82 11.838 3.06 17.779 4.668 2.678.724 5.885 1.312 8.415 2.122 3.666 1.175 5.625 3.68 9.858 3.623957-1.191-7.840957-3.989-15.113957-5.677-22.888957-1.762-8.12-5.278-15.304-9.158-22.964-1.731-3.417-3.012-7.043-4.681-10.489-1.856-3.833-4.465-7.008-6.706-10.592-4.585-7.331-9.479-14.383-13.983-21.766-3.932-6.446-8.424-12.625-12.729-18.847-4.732-6.841-11.308-12.004-16.679-18.28-2.267-2.651-4.425-5.114-6.965-7.547-2.339-2.24-5.657-7.198-9.238-7.43-2.058-.134-5.624 1.024-7.588 1.645-3.634 1.151-7.489 1.901-11.242 2.914-4.107 1.109-8.143 2.552-12.257 3.606-1.646.421-3.601.221-5.162.698-1.632.5-2.935 1.601-4.72 2.106-8.806 2.498-17.559 5.334-26.43 7.608-9.133 2.342-18.406 4.336-27.257 7.653-1.688.633-3.566 2.129-4.863 1.146-.967-.734-1.591-2.807-1.336-4.017.849-4.028 7.292-5.483 10.394-7.1 8.313-4.334 16.572-7.39 25.506-10.333 4.401-1.448 8.786-2.994 13.248-4.245 3.73-1.045 7.612-2.813 11.426-3.348 3.392-.476 5.801-1.812 9.168-2.995 4.96-1.743 10.061-3.174 15.102-4.663 8.615-2.546 17.747-3.616 26.562-5.323 20.422-3.955 41.625-5.935 62.464-5.69 10.506.124 21.496-.183 31.879 1.545 2.504.416 7.767.336 9.493 2.583.927 1.206.425 3.001.663 4.308.402 2.206 1.605 3.234 2.648 5.244 2.217-10.876 4.764-21.521 7.626-32.238 2.588-9.699 4.983-19.574 8.441-29.137 3.659-10.118 8.095-20.846 13.564-30.106 1.126-1.906 3.933-4.934 4.174-7.066.25-2.2-2.833-3.904-4.951-4.149-4.752-.549-9.84.391-14.507.552zm102.137 155.405c1.547-15.087 6.069-30.868 3.543-46.015-1.069-6.412-1.904-12.533-5.111-18.321-1.622-2.927-2.272-5.077-5.368-3.351-3.134 1.747-6.019 6.062-8.617 8.563-4.775 4.597-9.776 9.331-15.494 12.745-4.504 2.688-13.45 5.236-16.836-.579-3.226-5.542 1.077-13.276 4.166-17.848 3.535-5.231 10.231-10.076 6.473-16.53-1.617-2.778-3.944-3.506-6.39-5.329-2.117-1.578-3.891-3.622-6.009-5.228-6.136-4.655-12.866-6.649-19.951-9.309-3.271-1.229-3.701-2.385-5.591.424-2.052 3.051-3.176 7.327-4.66 10.701-2.972 6.759-6.142 13.163-9.974 19.465-3.867 6.36-7.294 13.004-10.949 19.49-1.379 2.447-2.676 4.934-4.306 7.231-.888 1.25-1.987 2.364-2.708 3.732-1.067 2.023-.592 3.867-1.256 5.881-2.866 8.69-7.046-3.441-7.845-6.277-.908-3.226-3.099-5.741-4.519-8.75-1.173-2.485-1.973-6.178-4.805-7.348-2.32-.958-5.31.357-7.677.485-4.35.236-8.732-.116-13.101.156-4.085.254-8.161.646-12.245.896-4.088.251-8.171-.44-12.205-.01-7.239.772-14.64.648-21.863 1.718-8.476 1.254-16.865 2.592-25.365 3.636 1.975 3.735 6.069 5.355 9.306 8.02 2.893 2.382 5.184 5.131 8.098 7.397 2.957 2.3 4.714 5.702 7.161 8.466 2.398 2.707 4.618 4.977 6.719 8.006 10.139 14.626 20.597 28.712 28.96 44.52 4.233 8.001 8.275 16.561 11.167 25.145 3.102 9.207 4.624 19.081 6.467 28.601.918 4.745 1.399 8.75.393 13.522-.264 1.136-.539 2.27-.824 3.401-.882 1.354-.556 2.232.98 2.635.898 1.309 2.124 1.8 2.202 3.59.06 1.36-.697 2.936-1.868 3.703-2.261 1.48-2.261-.519-4.592-.076-.874.473-1.748.945-2.621 1.417-.461-.702-.936-1.396-1.423-2.08-1.486-1.413-2.668-1.284-4.61-1.628.987 11.367-.587 21.516-3.089 32.604-1.204 5.332-3.267 10.551-4.307 15.892-1.161 5.967 1.377 8.685 5.303 12.665-.996.52-2.742 1.085-3.564 1.862-1.308 1.239-.974 1.391-.973 3.33.002 3.55-.679 7.049-1.237 10.54-1.032 6.465-1.975 13.155-4.201 19.345-4.043 11.243-10.578 22.919-17.236 32.822-3.726 5.542-7.461 11.838-12.131 16.62-4.687 4.798-9.333 9.64-14.009 14.453-9.203 9.474-19.26 16.019-30.285 23.112-4.366 2.81-8.965 5.888-12.72 9.386-3.816 3.554-8.891 6.042-13.452 8.624-2.035 1.152-3.483 2.807-5.68 3.752-2.064.887-3.506 1.177-5.237 2.341-4.295 2.888-8.934 5.357-13.663 7.535-5.768 2.656-11.444 5.746-17.368 8.013-2.699 1.033-5.238 2.159-7.852 3.367-2.829 1.307-5.881 2.165-8.783 3.558-2.452 1.177-4.935 1.861-7.431 2.823-2.038.786-3.638 2.058-5.717 2.88-4.317 1.705-8.246 2.623-12.44 4.633-5.573 2.671-12.177 3.917-18.047 5.839-6.554 2.147-13.353 4.283-20.079 5.805-2.862.648-5.3 1.495-8.064 2.476-1.801.639-3.866.989-5.861 1.596-5.513 1.681-11.023 3.301-16.565 4.73-10.828 2.793-21.89 6.146-32.391 9.937-5.506 1.988-11.091 4.38-16.373 6.911-5.971 2.86-12.405 4.511-18.398 7.343-11.577 5.469-23.115 11.099-34.558 16.841-6.009 3.016-11.934 6.123-17.801 9.403-2.129 1.19-4.457 1.681-6.572 2.848-2.766 1.527-5.036 3.768-7.869 5.281-10.92 5.832-22.065 11.326-32.095 18.705-5.249 3.862-10.889 7.817-15.425 12.519-1.497 1.551-4.091 3.953-4.362 6.204-.399 3.33-.025.266 1.128 2.32 1.597.194 1.958.808 1.087 1.84-.402.484-.917.731-1.544.741-2.017.408-5.79-1.729-7.411-2.623-2.809-1.548-4.3-3.505-6.104-6.104-3.918-5.638-7.741-11.327-11.776-16.886-3.629-4.999-7.181-10.503-11.31-15.094-2.8-3.112-3.01-1.753-6.124.002-2.317 1.305-5.008 1.862-7.409 3.091-9.149 4.687-19.206 8.148-28.59 11.414-2.137.744-3.276 1.924-5.154 2.951-2.392 1.309-5.422 1.949-7.98 2.879-7.047 2.562-14.059 5.222-21.056 7.918-5.402 2.083-10.593 3.724-14.822 7.567-1.683 1.53-3.72 2.626-5.458 4.173-2.024 1.799-4.761 4.727-7.309 5.745l-1.552 1.212c-1.05-.73-2.101-1.459-3.154-2.186-1.044-.723-2.089-1.443-3.131-2.168-2.617-1.819-5.215-3.664-7.816-5.506-5.899-4.181-11.836-8.321-17.323-13.041-9.747-8.381-19.8610003-16.313-30.0530003-24.163-10.697-8.239-21.126-16.861-32.19-24.605-10.028-7.019-20.969-12.947-30.692-20.355-4.894-3.729-9.776-7.482-14.773-11.094-.272-.196-4.33799996-2.691-4.37879788-2.968-.06920208-.51 1.26879792-1.841 1.66379792-2.269 1.87-2.033 3.94199996-3.843 5.80499996-5.898 8.683-9.575 20.02-9.241 32.003-9.693 5.434-.205 11.327 2.301 16.488 4.007 6.311 2.086 12.399 5.148 18.495 7.792 12.563 5.449 25.5290003 10.105 38.2190003 15.152 4.99 1.984 9.961 2.952 15.034 4.316 5.147 1.385 10.449.065 15.954.164 2.857.051 5.558.218 8.435.056 1.708-.096 3.676-.42 5.363-.391 1.367.024 2.786.588 4.044.445 5.507-.624 11.324-1.499 17.004-2.215 5.639-.711 11.458-1.064 17.023-2.177 2.802-.56 5.567-1.352 8.263-2.302 2.34-.825 6.594-1.762 8.514-3.433 1.718-1.495.967-1.515.009-3.954-.379-.964-.771-2.426-1.333-3.355-1.519-2.51-2.987-3.299-2.103-6.44 1.557-5.536 6.864-9.07 11.407-11.797 10.234-6.14 19.594-14.016 30.37-19.225 22.204-10.732 42.44-24.673 64.094-36.459 23.802-12.955 46.318-28.157 70.451-40.565 22.464-11.549 44.825-23.166 67.475-34.352 11.06-5.46 23.569-10.457 33.604-17.616-5.56-.69-11.136-1.581-16.715-2.075-2.588-.229-5.207-.017-7.78-.428-2.878-.46-5.599-1.624-8.471-2.108-4.939-.834-9.38-2.527-14.323-3.151-5.3-.67-10.491-2.228-15.816-2.664-11.139-.913-21.192-5.021-30.957-10.198-2.417-1.282-4.403-.549-6.719-1.421-1.276-.479-2.631-2.395-4.064-3.424-3.947-2.834-7.335-6.18-11.086-9.276-7.886 17.698-23.371 29.735-38.148 41.607-7.485 6.012-15.609 11.109-23.171 17.008-5.862 4.574-11.186 8.668-17.444 12.305-6.009 3.49-11.654 8.204-17.383 12.397-3.883 2.842-8.434 4.987-12.563 7.455-3.374 2.016-9.961 5.023-10.881 8.68-.753 2.988.716 6.544-3.844 5.17-4.083-1.229-7.043-5.762-9.421-8.955-6.15-8.262-11.887-16.804-17.597-25.37-3.067 5.986-8.357 10.297-13.247 14.735-2.971 2.697-6.055 5.199-9.264 7.606-1.556 1.168-3.13 2.313-4.689 3.478-.614.46-2.006 1.167-2.404 1.815-.93 1.516-.365.829-.22 2.662.226 2.871 1.184 5.13-.441 7.881-1.526 2.583-4.853 3.686-7.185 5.45-5.548 4.199-11.382 8.662-17.537 11.941-1.397.744-2.718 1.389-4.019 2.3-2.172 1.519-1.775 2.07-3.964.614-3.423-2.279-6.38-6.062-9.469-8.81-6.472-5.758-13.016-11.443-19.644-17.02-12.631-10.63-25.635-20.731-38.1090003-31.551-11.854-10.282-24.562-19.133-36.8-28.908-3.357-2.681-6.673-5.417-9.986-8.153-2.95-2.435-7.737-5.119-9.919-8.235-3.169-4.526 9.227-10.711 12.967-11.632 6.449-1.587 14.788-.679 21.247.622 6.78 1.365 13.684 5.931 20.015 8.775 7.1360003 3.205 14.4040003 5.976 21.5930003 9.002 3.206 1.349 6.605 2.426 9.581 4.244 3.158 1.929 5.977 4.128 9.335 5.746 3.87 1.862 7.891 3.6 11.961 4.978 1.844.624 3.829 1.251 5.767 1.503 2.744.357 2.372-.907 4.651-1.613 1.937-.6 2.397.985 4.139 1.426 1.64.416 2.866-.005 4.286-.887 3.166-1.965 5.984-4.675 9.151-6.721 2.938-1.899 6.177-3.673 8.931-5.823 1.228-.958 2.136-2.271 3.346-3.244 1.939-1.56 2.708-.941 4.972-2.015 1.851-.879 3.53-2.515 5.291-3.599 1.093-.673 3.744-1.523 4.449-2.612 1.852-2.859-1.309-4.845-4.14-4.002-.424-2.469-2.601-8.331-1.661-10.646.832-2.048 3.016-1.665 4.853-2.749 6.904-4.076 11.999-11.482 18.458-16.271 6.089-4.515 11.461-9.905 17.493-14.503 5.167-3.939 10.814-7.785 15.519-12.033 5.563-5.022 12.685-8.929 18.733-13.412 6.248-4.63 12.054-9.782 18.235-14.465 5.947-4.505 11.788-9.211 17.899-13.5 5.492-3.855 11.249-7.375 16.627-11.283 2.946-2.14 6.167-4.02 9.53-5.425 3.344-1.398 6.269-3.037 9.534-4.542 6.489-2.991 14.939-5.058 21.995-5.915 7.758-.942 15.548-1.787 23.38-1.794 4.172-.003 8.224.791 12.371 1.043 3.81.23 7.93 1.194 11.713 1.067 1.713-.057 3.202-.782 4.861-.548 1.385.195 2.59 1.031 4.076 1.177 3.309.326 6.636.001 9.982.429 7.687.982 15.384 2.382 23.087 3.162 8.207.831 16.343.988 24.507 2.388 7.978 1.367 16.006 2.784 23.938 4.365 16.857 3.36 33.89 6.641 50.48 11.63 3.878 1.166 7.779 2.275 11.507 3.874 1.809.775 3.547 1.715 5.434 2.295 2.702.83 3.234 1.145 4.626-1.122 2.396-3.902 3.716-9.063 5.455-13.308 1.719-4.201 3.807-8.435 4.804-12.822-2.899-.459-6.556.433-9.547.535-3.657.126-7.274.047-10.927.025-7.363-.044-13.12-2.219-20.087-4.502-5.872-1.925-13.69-3.029-18.169-7.437-2.402-2.363-3.201-2.779-6.811-2.355-3.642.427-7.239 1.163-10.916 1.285-13.858.46-27.653 2.878-41.574 3.356-3.766.129-13.185 1.914-12.568-4.473.128-1.326 1.144-2.476 1.342-3.841.212-1.463-.154-2.948-.383-4.378-.545-3.383-1.114-6.764-1.657-10.148-12.694 4.074-25.548 7.375-38.484 10.602-5.364 1.338-13.982 4.415-19.525 2.728-5.359-1.631-2.255-9.181-.586-12.795-10.647 2.43-22.003 6.404-32.86 7.316-3.303.278-6.518 1.009-7.287-2.984-.612-3.182 1.686-7.073 2.858-9.868-8.332-.744-16.96-.673-15.392-11.353 1.437-9.799 9.577-11.75 18.244-13.54 10.697-2.211 21.622-2.948 32.389-4.737 9.368-1.557 19.589-3.293 29.156-2.507 5.065.415 10.16.51 15.223.979 2.389.221 4.686.591 6.998 1.243 2.133.6 5.116 2.461 7.302 2.494 3.3.052 7.278-4.41 10.827-5.441 4.396-1.278 9.133-1.51 13.675-1.823 5.148-.353 10.304-.55 15.448-.967 1.173-.095 5.606.195 6.532-.492 1.348-1.001.451-6.135.357-8.244-.088-1.951.288-5.605-1.064-6.37-1.27-.718-4.972.267-6.222.467-5.181.83-10.104.735-15.266.524-2.384-.097-4.674.538-7.035.225-2.533-.335-5.083-1.187-7.606-1.661-5.465-1.027-10.444-2.305-15.153-5.367-4.134-2.687-9.026-4.506-11.336-9.212-1.692-3.446-2.38-10.096 2.595-11.076-3.388-4.887-5.726-10.377-7.522-16.024-.326-1.024-.542-2.566-1.029-3.459-1.72-3.158-.124-.357-2.578-1.62-2.425-1.247-4.173-2.234-6.068-4.403-3.021-3.459-4.293-7.716-4.675-12.223-.518-6.121-1.486-13.023-.592-19.113 1.547-10.549 9.257-18.475 17.091-24.855 4.253-3.464 9.852-4.754 14.84-6.856 4.815-2.03 10.194-4.158 15.267-4.634 4.579-.43 9.043-1.925 13.627-2.528 6.3-.83 12.607-.52 18.938-.772 2.914-.116 5.821-.527 8.722-.84 1.638-.177 4.408.012 5.908-.637 2.455-1.064 1.129 1.17 2.006-2.084 1.668-6.19 3.03-11.995 5.557-18.01 2.354-5.604 5.213-10.962 8.992-15.753 3.544-4.494 8.14-7.781 12.315-11.62 3.094-2.844 6.603-5.413 10.132-7.713 2.018-1.315 4.266-2.026 6.237-3.187 2.448-1.44 4.608-2.532 7.362-3.414 5.91-1.892 11.775-3.901 18.052-3.802 6.767.106 13.551-1.469 20.139.528 12.233 3.709 18.227 16.967 18.022 29.142 4.184-1.044 7.841-3.054 12.273-3.226 4.082-.158 8.932.196 12.942.954 7.782 1.471 15.786 5.797 20.426 12.353 4.426 6.253 5.088 14.555 2.368 21.649-1.302 3.396-3.367 6.417-5.567 9.286-1.612 2.104-5.21 4.433-5.38 7.252 30.121-9.105 60.365-15.523 91.524-19.677 15.795-2.105 31.616-1.051 47.427-2.254 6.754-.514 14.094.205 21.076.232 2.948.012 5.242-.398 7.379-2.306 2.164-1.93 3.893-4.294 6.415-1.508.644.711.779 2.431 1.645 2.966 1.05.648 4.103.203 5.359.28 4.391.268 8.676 1.013 12.987 1.871 7.91 1.575 15.769 3.167 23.585 5.166 14.882 3.807 29.567 7.489 44.234 12.008 14.966 4.611 30.09 10.3 43.889 17.764 6.684 3.615 13.36 8.128 19.505 12.6 2.857 2.08 5.418 4.33 7.902 6.838 2.657 2.681 5.906 4.49 8.537 7.191 5.722995 5.875 11.421995 12.107 16.613995 18.472 2.711 3.323 5.197 6.828 7.611 10.37 1.694 2.485 6.158 7.035 5.13 10.245-.548 1.714-2.462 2.913-4.215 2.493-.585-.14-1.073-.9-1.572-.972-1.693-.24-.153-.836-2.129-.035-3.926 1.593-5.178 4.788-10.166 4.061-8.478995-1.237-16.453995-5.241-24.164995-8.732-2.202 8.42-2.514 17.149-4.442 25.67-1.88 8.313-5.015 16.241-8.8 23.866-3.32 6.69-7.583 13.82-13.46 18.601-4.484 3.648-15.551 8.18-18.845.413-1.399-3.299.682-8.425 1.271-11.82.791-4.556 1.663-9.125 2.139-13.727.386-3.739.581-7.5.941-11.243.311-3.22 1.171-10.133-.64-12.977-1.091-1.714-1.186-.032-1.821 1.679-.77 2.075-1.41 4.133-1.973 6.27-1.198 4.541-2.278 9.113-3.411 13.67-2.024 8.142-4.253 16.106-8.471 23.427-3.746 6.501-9.018 13.633-17.03 14.698-3.751.498-8.641-1.217-11.504-3.744-3.213-2.835-2.253-7.511-2.227-11.365zM710.9064 600.7894c4.403-.869 8.109-4.383 11.705-7.023 4.586-3.367 8.937-7.036 13.39-10.573 8.391-6.665 16.005-13.975 23.245-21.925 14.285-15.684 25.039-35.873 29.928-56.5 2.473-10.437 5.532-22.666 4.128-33.452-.488-3.747-1.232-4.434-4.906-4.86-1.659-.192-5.87-.669-7.364-.017-3.872 1.692-5.962 8.891-7.11 12.509-3.392 10.682-5.388 21.745-8.453 32.515-3.004 10.556-7.846 21.267-12.634 31.138-10.654 21.964-25.462 40.339-41.929 58.188m87.343-121.263c-2.633 29.909-10.937 58.405-29.556 82.491-8.85 11.449-19.258 21.41-30.539 30.458-11.648 9.343-23.544 18.142-36.761 25.11-3.517 1.855-7.039 3.703-10.6 5.472-1.974.981-6.957 4.593-9.234 4.022-1.824-.459-2.3-1.87-2.585-3.706-.638-4.121 2.039-6.178 4.746-8.824 10.875-10.632 21.784-21.302 31.952-32.612 20.081-22.336 35.166-49.083 43.551-77.943 2.583-8.886 4.888-17.871 7.676-26.694 1.698-5.375 4.106-14.943 9.75-17.623 3.026-1.437 6.553-.039 9.735-.9 2.985-.808 4.963-2.456 7.507.308 4.464 4.85 4.663 14.363 4.358 20.441M2.71009974 652.098c-2.229.79-2.322 1.573-3.343-.72-.514-1.156-.375-2.739-.254-3.94.29-2.876 1.804-5.533 3.048-8.083 11.70799996 9.658 23.86499996 18.362 36.41899996 26.895 13.426 9.125 26.245 19.271 38.943 29.379 11.371 9.053 22.8790003 17.838 34.1310003 27.004 5.427 4.421 11.614 7.847 16.773 12.403 4.169 3.682 11.083 5.332 14.637 9.663-5.632 3.366-13.151 6.076-19.392 3.164-6.885-3.212-12.166-7.399-18.293-11.752-3.157-2.243-6.4400003-4.279-9.6470003-6.449-2.819-1.909-4.81-4.695-7.664-6.485-5.998-3.763-12.151-7.909-17.842-12.206-5.846-4.413-12.308-7.924-17.948-12.614-5.782-4.809-12.254-7.995-18.291-12.373-12.794-9.277-24.06-19.712-31.27699996-33.886M347.8927 159.473c-.159.854-.318 1.708-.477 2.563025.097.021975 7.753-14.768025 9.021-16.554025 4.302-6.055 9.9-11.093 15.297-16.15 11.432-10.712 24.812-19.358 36.015-30.261 3.686-3.587 10.29-9.022 8.832-15.087-1.449-6.028-13.681-4.803-17.87-3.059-6.567 2.735-11.901 8.455-16.795 13.439-5.338 5.437-10.719 10.813-15.243 16.966-4.878 6.635-9.509 13.821-12.498 21.521-3.349 8.626-4.657 17.553-6.282 26.622m2.514 26.464c-5.195 1.602 1.318 2.684-.717 5.46-2.232 3.044-5.984-6.335-6.545-8.106-3.307-10.463-1.828-23.174-.022-33.797.912-5.359 1.501-10.806 2.731-16.107 1.2-5.169 3.813-10.081 6.227-14.783 4.833-9.408 11.233-18.173 18.496-25.844 7.285-7.696 15.405-15.396 25.018-20.134 7.943-3.913 20.533-1.198 24.251 7.349 3.799 8.734-1.339 18.248-7.415 24.389-7.926 8.009-16.562 15.964-25.465 22.87-4.575 3.55-8.41 7.843-12.855 11.547-4.731 3.943-8.824 7.909-12.322 13.008-3.388 4.941-6.875 9.878-9.077 15.487-2.411 6.142-2.305 12.163-2.305 18.661"/>
      <path d="M142.6105 562.5805c-11.938-7.687-23.916-14.436-34.312-24.239-10.2640003-9.679-19.2320003-20.594-30.6560003-28.992-5.7-4.19-11.583-8.123-17.182-12.45-5.314-4.107-11.422-7.625-16.225-12.309-6.402-6.246-18.388-17.851-10.209-27.163 10.152 12.074 24.081 21.591 36.78 30.757 13.39 9.665 25.68 20.94 38.3810003 31.47 12.235 10.143 24.429 20.38 36.368 30.792 3.135 2.735 6.159 5.608 9.331 8.299.388.329 3.676 2.412 3.676 2.966 0 1.33-2.548 2.16-3.456 2.53-1.433.584-5.309 2.036-6.934 1.545-.852-.258-.867-.952-1.481-1.364-.353-.666-.765-1.293-1.233-1.883-.95.015-1.899.029-2.848.041M845.3928 428.5531c-8.51-.219-21.464-.244-20.987 11.377.236 5.754 3.356 9.98 5.919 14.902 2.691 5.172 4.686 10.515 5.476 16.313 3.195 23.467-5.377 46.393-13.13 68.087 16.651-13.439 28.676-32.139 34.99-52.636 3.061-9.94 4.252-22.716 3.263-33.066-.495-5.179-2.405-9.822-4.705-14.436-1.155-2.318-2.31-4.965-4.152-6.841-1.845-1.88-4.403-2.506-6.674-3.7m-29.686 124.12c-5.498-9.041 3.158-22.353 5.988-31.169 3.384-10.54 6.506-21.514 7.952-32.507 1.515-11.515-.441-20.468-5.778-30.639-4.773-9.093-7.606-21.203-2.3-30.824 2.137-3.872 5.292-4.348 9.043-5.893 4.604-1.895 5.872-5.101 11.522-4.593 10.081.905 14.745 10.466 18.495 18.612 8.744 18.99 6.367 43.497-1.09 62.566-4.292 10.972-9.187 22.365-16.474 31.708-3.573 4.581-7.773 8.552-12.131 12.374-4.715 4.133-8.939 9.115-15.227 10.365M240.0304 222.973c-13.29 2.671-25.418 8.661-27.547 23.597-1.935 13.574 7.311 26.132 18.665 32.486 12.28 6.874 27.667 8.016 39.903.398 12.881-8.02 15.803-24.092 7.963-36.701-8.748-14.071-23.403-18.224-38.984-19.78m8.541-6.512c15.826 2.319 30.517 13.582 35.848 28.751 5.496 15.637.446 32.829-14.104 41.397-29.405 17.317-68.706-11.542-61.609-44.712 1.802-8.422 6.919-14.944 13.871-19.875 7.675-5.445 16.956-5.593 25.994-5.561M811.2531 57.6649c-19.069-8.622-38.139-17.244-57.208-25.866-.782 8.644-1.564 17.287-2.347 25.931-.212 2.339-1.078 5.521-.709 7.829.395 2.463-.448 2.2 2.763 1.85 4.106-.449 8.226-1.463 12.29-2.188 7.306-1.304 15.076-1.676 22.227-3.594 3.649-.979 7.144-1.102 10.848-1.694 4.068-.65 8.027-1.854 12.136-2.268m-64.506 16.71c0-9.737 1.082-19.343 1.973-29.035.802-8.72 1.111-17.032 3.957-25.34 2.659 4.829 10.022 6.759 14.578 9.244 6.278 3.424 12.964 5.945 19.39 9.064 6.312 3.063 12.392 6.58 18.711 9.636 3.204 1.55 6.457 2.996 9.655 4.558 2.002.978 6.75 2.552 7.995 4.368 3.781 5.512-9.16 6.045-11.658 6.531-7.491 1.461-15.069 2.284-22.546 3.786-6.971 1.402-13.955 2.703-20.951 3.974-6.924 1.258-14.058 3.214-21.104 3.214M158.7658 315.4242c7.508-.781 14.985-1.905 22.485-2.647 7.102-.703 13.384-1.451 19.872-4.705-8.861-2.672-17.742-5.202-26.678-7.616-4.432-1.197-8.855-2.464-13.307-3.582-3.444-.866-6.446-1.364-7.77-5.123-1.541-4.376 2.744-3.713 5.415-2.601 3.684 1.533 7.697 2.486 11.515 3.761 8.522 2.845 17.096 5.462 25.698 8.049 2.674.804 18.168 3.778 12.585 8.947-2.389 2.213-7.72 3.428-10.641 5.017-3.747 2.038-7.826 2.85-11.994 3.661-8.687 1.69-17.702 2.339-26.496 3.805-4.491.749-8.981 1.498-13.471 2.247-2.631.438-3.644.395-4.331-2.539-.5-2.132.152-4.265.632-6.33 1.218-5.247 2.573-10.467 3.914-15.683.51-1.99 1.413-10.738 3.188-11.695 4.027-2.171.92 9.94.621 11.423-1.13 5.594-2.472 11.149-3.076 16.826 3.955-.358 7.899-.729 11.839-1.215M265.2238 359.9604c1.49 3.741-.984 4.578-3.986 5.874-3.894 1.681-7.724 3.455-11.689 4.969-8.341 3.183-16.742 6.139-24.884 9.822-15.529 7.023-31.268 13.767-46.556 21.287-3.799 1.869-7.601 3.731-11.434 5.531-3.964 1.862-8.51 4.995-12.751 6.059-3.699.928-4.085-1.706-1.893-4.132 2.826-3.129 7.195-5.465 10.744-7.64 14.606-8.953 30.547-16.241 46.5-22.4 18.439-7.12 36.928-13.951 55.949-19.37M305.7687 147.7328c-.534-11.374.987-22.779.08-34.123-15.596 13.826-7.912 35.193 1.06 50.195l-1.14-16.072zm6.751-.65c.099 5.556.414 11.109-.126 16.637-.567 5.803 2.155 8.792 5.703 13.066-3.013 3.058-9.927-4.072-11.836-6.174-3.931-4.328-6.856-10.078-9.459-15.275-5.544-11.071-9.362-22.924-4.925-35.079 1.645-4.505 3.657-10.63 8.012-13.253 4.782-2.88 8.44 1.182 10.424 5.36 4.844 10.194 1.151 23.776 2.207 34.718zM477.7404 712.4623c7.191.57 14.275 1.131 21.467 1.587-1.241-9.858-2.483-19.717-3.724-29.576-4.161.964-8.322 1.927-12.483 2.889-1.967.455-4.984.575-6.725 1.557-.651.15-1.303.301-1.953.452-.018 1.279-.032 2.559-.044 3.839-.049 3.786-.158 7.568-.315 11.351-.066 1.585-.619 3.906-.24 5.476-.673 1.588-.245 2.263 1.288 2.025.91.133 1.819.267 2.729.4m-4.951 7.127c-5.637-2.807-4.096-11.383-4.087-16.842.007-3.473.252-6.923.343-10.391.063-2.384-.482-5.334.338-7.637 1.459-4.097 8.598-3.986 12.269-3.699 2.722.212 5 .075 7.79-.104 1.375-.088 2.909.174 4.26-.232.292-.088 3.041-2.005 2.919-2.01 4.931.189 4.997 12.012 5.317 15.012.791 7.395 1.507 14.803 2.151 22.213.171 1.961.9 4.178-.963 5.297-1.68 1.01-6.133.012-7.991-.045-7.49-.226-14.938-1.394-22.346-1.562M824.6721 280.2738c3.259 2.933 1.693 5.959.626 9.623-.642 2.199-4.168 9.419-3.195 11.476 1.125 2.378 6.407 2.963 8.666 3.714 3.934 1.308 7.886 2.622 11.609 4.466 1.652.819 7.611 2.701 8.728 4.229.64.876.873 1.562.392 2.691-.845 1.982-2.05.933-4.109.508-9.409-1.944-18.738-4.43-27.464-8.53-2.433 5.647-4.493 11.414-6.551 17.208-.603 1.698-1.179 5.556-3.47 5.831-2.794.334-2.832-3.408-2.646-5.427.27-2.948 1.798-6.091 2.72-8.882.761-2.304 3.43-7.101 3.101-9.475-.225-1.634-1.221-1.52-2.996-2.162-1.677-.606-3.355-1.209-5.031-1.822-2.687-.983-5.363-1.969-7.978-3.135-1.435-.64-4.438-1.388-5.477-2.716-.603-.77-1.275-3.545-.514-4.313 1.779-1.799 13.611 3.043 16.044 3.704 1.614.439 3.236.774 4.802 1.349.593.219 1.295 1.107 1.936 1.14 2.722.138 2.938-1.955 3.782-4.2 1.961-5.217 4.09-10.539 7.025-15.277M146.2912 384.0692c-1.451-3.557 13.95-7.854 16.809-9.052 6.978-2.921 14.454-4.688 21.679-6.919 7.105-2.194 14.179-4.556 21.167-7.095 2.161-.786 17.723-8.363 18.537-7.255 2.697 3.666-29.959 15.182-33.141 16.328-14.776 5.32-30.033 9.405-45.051 13.993M808.6887 105.9032c-3.992.04-9.75 1.172-13.413-.448 4.471.149 8.942.299 13.413.448"/>
      <path d="M248.5714 216.4613l-8.877-.032c2.962-.687 5.922-1.102 8.877.032M710.8449 214.0897c2.093-.011 4.187-.022 6.266-.034-2.098.012-4.182.023-6.266.034M893.8537 268.3095c-.016 2.239-.03 4.478-.049 6.708.014-2.242.031-4.475.049-6.708M481.6525 681.0199c-2.223.161-4.446.321-6.667.481 2.224-.16 4.445-.321 6.667-.481M494.1798 254.2895c-2.258.183-4.516.367-6.771.55 2.257-.184 4.514-.367 6.771-.55M727.8058 213.3529c1.598-.003 3.195-.006 4.78-.009-1.602.004-3.191.007-4.78.009M406.3468 258.6581c-1.985.179-3.972.358-5.956.537 1.985-.179 3.971-.358 5.956-.537M494.0421 116.934c-1.986.012-3.972.024-5.957.036 1.98-1.05 3.967-.779 5.957-.036M131.5724 460.3832c-1.652-.088-2.998.714-3.93-.862 1.525-1.189 2.405.181 3.93.862M437.9572 327.7689l-5.156-.58 5.156.58zM472.7892 719.5897c1.139.026 2.277.051 3.403.077-1.143-.027-2.273-.052-3.403-.077M737.3674 109.1449c-1.774.159-3.55.318-5.324.477 1.775-.16 3.55-.318 5.324-.477M174.8693 647.5858c-1.705.007-3.409.015-5.113.021 1.705-.007 3.409-.014 5.113-.021M37.8292997 617.3651c-1.721.003-3.441.006-5.161.009 1.721-.003 3.44-.006 5.161-.009M472.6554 255.7094c-1.747.172-3.494.343-5.241.515 1.748-.172 3.494-.343 5.241-.515M423.9113 258.5438c-1.719-.198-3.437-.396-5.155-.594 1.703.333 3.595-.982 5.155.594M579.5842 327.5409c1.07-.121 2.572-.496 3.675-.321-.144.63-3.264.319-3.675.321M470.55 462.3783c1.153.022 2.307.044 3.448.063-1.157-.021-2.302-.042-3.448-.063M366.4044 325.0575c-1.684.163-3.367.326-5.051.488 1.685-.163 3.367-.325 5.051-.488M177.8693 319.3183c.918.025 1.836.05 2.742.075-.922-.025-1.832-.05-2.742-.075M426.0402 326.3251c-1.44-.029-2.881-.058-4.32-.086 1.44.028 2.88.057 4.32.086M158.7658 315.4242c-1.456.18-2.912.359-4.366.538 1.457-.18 2.911-.359 4.366-.538M358.4914 303.0551c.899.036 1.798.072 2.686.111-.904-.034-1.795-.072-2.686-.111M427.089 454.2855c.913-.06 1.825-.119 2.726-.18-.916.059-1.821.12-2.726.18M496.9308 335.8637c-1.468-.183-2.937-.366-4.403-.549 1.467.183 2.935.366 4.403.549M142.6105 562.5805c.953-.013 1.906-.025 2.848-.041-.956.013-1.903.027-2.848.041M64.3643997 444.1615c-1.518-.153-3.036-.307-4.555-.46 1.518.153 3.036.307 4.555.46M31.9737997 617.5726c-1.492.172-2.984.345-4.477.517 1.494-.173 2.985-.345 4.477-.517M845.3166 213.8476c-.117 1.29-.234 2.58-.354 3.865.117-1.292.235-2.578.354-3.865M183.7863 646.2968c-1.501.172-3.002.345-4.502.517 1.501-.173 3.002-.345 4.502-.517M169.0597 647.785c-1.519 1.061-3.037 1.121-4.557.004 1.519-.002 3.038-.003 4.557-.004M140.2599 649.0541c-1.473.001-2.945.002-4.417.003 1.473-.001 2.945-.002 4.417-.003M312.5197 147.0829c-.126-1.307-.252-2.613-.378-3.915.126 1.309.252 2.612.378 3.915M473.3771 117.8983c-1.48.183-2.96.365-4.439.547 1.48-.182 2.96-.364 4.439-.547M478.6222 117.206c-1.504.168-3.009.337-4.512.506 1.504-.169 3.008-.338 4.512-.506M245.0226 291.3607c.926-.014 1.852-.028 2.765-.042-.93.014-1.847.028-2.765.042M379.0197 276.8866c4.912-.81 9.823-1.08 14.733-.003l-14.733.003zM510.007 221.6396c1.022-2.67 1.276-3.672 3.772-5.054-1.039 2.595-1.202 3.983-3.772 5.054M629.7736 485.8788c.099 2.776.197 5.552.295 8.325-.099-2.777-.197-5.551-.295-8.325M807.8849 112.3148c-2.222.05-4.443.101-6.655.151 2.225-.05 4.44-.101 6.655-.151M511.9084 535.2177c.078 2.314.155 4.629.232 6.941-.078-2.316-.155-4.628-.232-6.941M239.6476 461.0741c2.244.016 4.489.032 6.733.048-2.245-.016-4.489-.032-6.733-.048M430.4162 342.2011c-1.353.013-2.704.025-4.043.042 1.356-.012 2.699-.027 4.043-.042M426.0109 268.6386c-1.112-.038-2.225-.076-3.325-.11 1.117.039 2.221.074 3.325.11M266.9767 460.3739c1.755-.171 3.509-.343 5.264-.515-1.755.172-3.509.344-5.264.515M228.7423 461.1625c1.719-.026 3.438-.053 5.156-.08-1.718.027-3.437.054-5.156.08M247.0939 461.1181c1.78-.155 3.56-.31 5.341-.465-1.78.154-3.561.31-5.341.465M253.5851 463.9403c-.885-.005-1.77-.011-2.643-.016.889.006 1.766.011 2.643.016M628.9973 424.1679c.132-1.305.265-2.609.396-3.909-.131 1.306-.264 2.607-.396 3.909M363.2257 292.2978c1.116.095 2.233.19 3.351.286-1.247.064-2.495.127-3.741.191.007-.256.137-.415.39-.477M650.05 511.7152c-.071-1.188-.143-2.377-.212-3.558.071 1.191.142 2.375.212 3.558M383.2648 287.765c-.896.018-1.793.035-2.678.052.901-.018 1.789-.035 2.678-.052M711.3537 437.7318c1.494.175 2.988.35 4.481.524-1.494-.174-2.987-.349-4.481-.524M401.0636 339.2958c-.92.014-1.839.027-2.747.043.923-.013 1.835-.028 2.747-.043M347.8927 159.473c.965.515.464 2.779-.477 2.563.159-.855.318-1.709.477-2.563M845.3928 428.5531c-.887-.023-1.773-.046-2.647-.069.889.024 1.768.047 2.647.069M305.7687 147.7328c-.094-1.995-.187-3.989-.28-5.978.093 1.997.187 3.987.28 5.978M473.6457 711.8622c1.366.2 2.731.4 4.096.6-1.367-.2-2.731-.4-4.096-.6M464.6193 198.2777c-4.815.991-9.76 1.509-14.462 2.968-1.173.364-5.023 2.6-6.428 2.011-2.135-.897-1.055-3.198-.156-4.426 2.406-3.284 6.71-5.124 10.657-5.083 3.939.042 9.347-.102 10.389 4.53M451.2414 207.0878c5.302 3.711 9.352 5.539 9.801-2.802 5.746.783 3.171 10.037-1.177 10.735-4.732.759-7.889-3.968-8.624-7.933"/>
    </g>
  </g>
</svg>
